{"title":"Dark Perversions 2 XXX 2014 **[NEW]** 01 September 2014","uid":10944355,"size":2077133744,"categoryP":"porn","categoryS":"movies","magnet":"?xt=urn:btih:89990ea29b1dd238e1ac18844f2d607c68d0bc22&amp;dn=Dark+Perversions+2+XXX+2014+%2A%2A%5BNEW%5D%2A%2A+01+September+2014&amp;tr=udp%3A%2F%2Ftracker.openbittorrent.com%3A80&amp;tr=udp%3A%2F%2Fopen.demonii.com%3A1337&amp;tr=udp%3A%2F%2Ftracker.coppersurfer.tk%3A6969&amp;tr=udp%3A%2F%2Fexodus.desync.com%3A6969","seeders":0,"leechers":0,"uploader":"iH2OSO4","files":-1,"time":1409587692,"description":"Dark Perversions 2 XXX 2014 **[NEW]** 01 September 2014\n\nStarring Kelly and Ryan Madison!The Darker Side Of Porn Fidelity!Over 5 Hours Of Hardcore Perverted XXX Insanity!Bonnie Rotten Gets Violated &amp; Gags On Cock!Luna Kitsuen Gets Dirty Cum Up Her Asshole!Casey Calvert Gets Injected With Cum!Alena Croft Double Tamed By Ryan &amp; Kelly!\n\nSOURCE :   &lt;a href=&quot; http://nuscotower.com/i/vivas2142.html&quot; rel=&quot;nofollow&quot; target=&quot;_NEW&quot;&gt; http://nuscotower.com/i/vivas2142.html&lt;/a&gt;\n\nGeneral\nDark.Perversions.2.XXX.2014.DVDRiP-eUDOXiU.mp4\nFormat                           : MPEG-4\nFormat profile                   : Base Media\nCodec ID                         : isom\nFile size                        : 1.93 GiB\nDuration                         : 2h 46mn\nOverall bit rate                 : 1 662 Kbps\nEncoded date                     : UTC 2014-08-31 22:06:57\nTagged date                      : UTC 2014-08-31 22:06:57\n\nVideo\nID                               : 1\nFormat                           : MPEG-4 Visual\nFormat profile                   : Simple@L1\nFormat settings, BVOP            : No\nFormat settings, QPel            : No\nFormat settings, GMC             : No warppoints\nFormat settings, Matrix          : Default (H.263)\nCodec ID                         : 20\nDuration                         : 2h 46mn\nBit rate mode                    : Variable\nBit rate                         : 1 536 Kbps\nMaximum bit rate                 : 7 340 Kbps\nWidth                            : 856 pixels\nHeight                           : 480 pixels\nDisplay aspect ratio             : 16:9\nFrame rate mode                  : Constant\nFrame rate                       : 29.970 fps\nColor space                      : YUV\nChroma subsampling               : 4:2:0\nBit depth                        : 8 bits\nScan type                        : Progressive\nCompression mode                 : Lossy\nBits/(Pixel*Frame)               : 0.125\nStream size                      : 1.79 GiB (92%)\nWriting library                  : Lavc53.8.0\nEncoded date                     : UTC 2014-08-31 22:06:57\nTagged date                      : UTC 2014-08-31 22:09:54\n\nAudio\nID                               : 2\nFormat                           : AAC\nFormat/Info                      : Advanced Audio Codec\nFormat profile                   : LC\nCodec ID                         : 40\nDuration                         : 2h 46mn\nBit rate mode                    : Variable\nBit rate                         : 124 Kbps\nMaximum bit rate                 : 192 Kbps\nChannel(s)                       : 2 channels\nChannel positions                : Front: L R\nSampling rate                    : 44.1 KHz\nCompression mode                 : Lossy\nStream size                      : 147 MiB (7%)\nEncoded date                     : UTC 2014-08-31 22:09:04\nTagged date                      : UTC 2014-08-31 22:09:54\n\n","torrent":{"xt":"urn:btih:89990ea29b1dd238e1ac18844f2d607c68d0bc22","amp;dn":"Dark+Perversions+2+XXX+2014+%2A%2A%5BNEW%5D%2A%2A+01+September+2014","amp;tr":["udp%3A%2F%2Ftracker.openbittorrent.com%3A80","udp%3A%2F%2Fopen.demonii.com%3A1337","udp%3A%2F%2Ftracker.coppersurfer.tk%3A6969","udp%3A%2F%2Fexodus.desync.com%3A6969"],"infoHash":"89990ea29b1dd238e1ac18844f2d607c68d0bc22","infoHashBuffer":{"type":"Buffer","data":[137,153,14,162,155,29,210,56,225,172,24,132,79,45,96,124,104,208,188,34]},"announce":[],"urlList":[]}}